<?xml version="1.0" standalone="no"?>
<!DOCTYPE svg PUBLIC "-//W3C//DTD SVG 20010904//EN"
 "http://www.w3.org/TR/2001/REC-SVG-20010904/DTD/svg10.dtd">
<svg version="1.0" xmlns="http://www.w3.org/2000/svg"
 width="1024.000000pt" height="1024.000000pt" viewBox="0 0 1024.000000 1024.000000"
 preserveAspectRatio="xMidYMid meet">
<metadata>
Created by potrace 1.14, written by Peter Selinger 2001-2017
</metadata>
<g transform="translate(0.000000,1024.000000) scale(0.100000,-0.100000)"
fill="#000000" stroke="none">
<path d="M0 5120 l0 -5120 5120 0 5120 0 0 5120 0 5120 -5120 0 -5120 0 0
-5120z m8064 1698 c11 -747 29 -3798 23 -3805 -7 -6 -129 8 -472 57 -115 17
-293 42 -395 56 -333 46 -602 83 -790 108 -102 14 -284 39 -405 56 -121 17
-287 40 -370 51 -82 11 -179 24 -215 29 -36 6 -135 19 -220 30 -85 11 -177 25
-205 30 -27 5 -111 16 -185 25 -74 9 -173 23 -220 30 -47 8 -141 21 -210 30
-69 8 -154 20 -190 25 -60 10 -132 20 -620 85 -96 13 -256 35 -355 49 -543 77
-720 102 -915 126 -47 6 -97 13 -113 16 l-27 6 0 114 c0 105 2 115 18 110 9
-3 94 -14 187 -26 94 -11 204 -25 245 -30 41 -6 271 -36 510 -66 239 -30 523
-66 630 -80 107 -13 301 -38 430 -54 129 -16 379 -47 555 -70 176 -22 374 -47
440 -55 66 -8 208 -26 315 -40 107 -14 301 -38 430 -54 129 -17 523 -66 875
-111 874 -111 984 -124 988 -119 2 2 0 472 -4 1044 -4 572 -7 1364 -8 1760 -1
396 -5 726 -10 734 -9 15 -40 12 -691 -49 -174 -16 -446 -41 -605 -55 -160
-14 -335 -30 -390 -35 -105 -10 -384 -36 -765 -69 -124 -11 -299 -27 -390 -36
-279 -27 -696 -65 -880 -80 -96 -8 -218 -20 -270 -25 -52 -6 -223 -22 -380
-36 -469 -40 -818 -72 -941 -85 l-116 -12 -6 -186 c-4 -102 -7 -220 -7 -261
l0 -76 -86 -13 c-47 -7 -87 -11 -90 -8 -5 5 16 728 22 738 2 3 41 9 86 13 46
4 137 13 203 21 66 8 208 24 315 35 107 11 254 27 325 35 133 16 357 40 685
75 189 20 533 58 765 85 72 8 216 24 320 36 105 11 314 33 465 50 151 16 379
41 505 54 127 14 246 27 265 30 19 3 141 17 270 30 129 14 336 37 460 50 124
14 353 39 510 56 274 30 678 75 691 78 4 0 9 -189 13 -421z"/>
</g>
</svg>
